<svg width="245" height="243" viewBox="0 0 245 243" fill="none" xmlns="http://www.w3.org/2000/svg">
<path d="M67 130.75V40.5341C67 23.1912 58.2772 7.01132 43.7887 -2.5206L42.2265 -3.54834C39.7515 -5.17667 37.0865 -6.49597 34.2909 -7.47687C19.7396 -12.5826 10 -26.3218 10 -41.7428V-206C10 -261.228 54.7715 -306 110 -306H331.75C386.978 -306 431.75 -261.228 431.75 -206V-26.7188C431.75 15.8762 397.22 50.4062 354.625 50.4062C312.03 50.4062 277.5 84.9363 277.5 127.531V198.25C277.5 222.965 257.465 243 232.75 243C208.035 243 188 222.965 188 198.25V119.875C188 110.624 180.501 103.125 171.25 103.125C161.999 103.125 154.5 110.624 154.5 119.875V138.812C154.5 158.522 138.522 174.5 118.812 174.5H110.75C86.5875 174.5 67 154.912 67 130.75Z" fill="#C8D8D6"/>
<path d="M67 123.75V34.25C67 15.7485 52.0015 0.75 33.5 0.75C14.9985 0.75 0 -14.2484 0 -32.75V-218C0 -273.228 44.7715 -318 100 -318H321.75C376.978 -318 421.75 -273.228 421.75 -218V-38.7188C421.75 3.87622 387.22 38.4062 344.625 38.4062C302.03 38.4062 267.5 72.9363 267.5 115.531V191.75C267.5 213.427 249.927 231 228.25 231C206.573 231 189 213.427 189 191.75V113.375C189 101.087 179.038 91.125 166.75 91.125C154.462 91.125 144.5 101.087 144.5 113.375V126.812C144.5 146.522 128.522 162.5 108.812 162.5H105.75C84.349 162.5 67 145.151 67 123.75Z" fill="#09302B"/>
</svg>
